<svg height="120" viewBox="0 0 288 120" width="288" xmlns="http://www.w3.org/2000/svg"><g fill="none" transform="translate(51 41)"><path d="m115.664207 30.9677419h-.911074c-5.499782 0-9.973122-4.5334938-9.973122-10.1058815v-4.5626005c0-3.2815056-2.634271-5.9513685-5.8727031-5.9513685h-2.2240892c-3.2389141 0-5.8734372 2.6698629-5.8734372 5.9513685v4.5626005c0 3.2812719 2.6345231 5.9508799 5.8734372 5.9508799h2.2240892c1.5665431 0 3.0595301-.6121313 4.2032471-1.7259587l.958756-.9665309.26311.7149393c.357783.971205.856095 1.8819022 1.481349 2.7058319l.263132.3471549-.309241.3053008c-1.817283 1.7888885-4.253257 2.7742643-6.8603531 2.7742643h-2.2240892c-5.4998865 0-9.9735413-4.5334938-9.9735413-10.1058815v-4.5626005c0-5.5723876 4.4736548-10.10571151 9.9735413-10.10571151h2.2240892c5.4996351 0 9.9732271 4.53332391 9.9732271 10.10571151v4.5626005c0 3.2812719 2.63425 5.9508799 5.872598 5.9508799h.911074zm2.111091 0h-.911284v-4.1550016h.911284c3.237928 0 5.871969-2.669608 5.871969-5.9508799v-4.5626005c0-5.5723876 4.47464-10.10571151 9.974212-10.10571151h.910235v4.15434301h-.910235c-3.238767 0-5.873227 2.6698629-5.873227 5.9513685v4.5626005c0 5.5723877-4.473802 10.1058815-9.972954 10.1058815zm28.148087 0h.004404l.202973-.0038242c5.371036-.1251372 9.740206-4.6578025 9.740206-10.1020573v-14.66806685h-4.101195v14.66806685c0 3.2704366-2.623976 5.9398322-5.846807 5.9508799-3.237719 0-5.87176-2.669608-5.87176-5.9508799v-14.66806685h-4.100985v14.66806685c0 5.5679686 4.474012 10.1012075 9.973164 10.1058815z" fill="#97999b"/><path d="m4.27828943 16.8856721c0-3.1799222 2.55664462-5.766897 5.69959087-5.766897h2.2007951c3.1424688 0 5.6995909 2.5869748 5.6995909 5.766897v4.5077267c0 3.1799012-2.5571221 5.7675481-5.6995909 5.7675481h-2.2007951c-3.14294625 0-5.69959087-2.5876469-5.69959087-5.7675481zm5.69959087 14.6039812h2.2007951c5.5018322 0 9.9779011-4.5290647 9.9779011-10.0962545v-4.5077267c0-5.5668117-4.4760689-10.09551938-9.9779011-10.09551938h-2.2007951c-2.05804433 0-4.04713152.63915153-5.69959087 1.8172754v-8.60742812h-4.27828943v21.3933988c0 5.5671898 4.47604817 10.0962545 9.9778803 10.0962545zm53.1822392-.043684h1.0115234v-4.3104347h-1.0115234c-3.1117889 0-5.6436073-2.5611845-5.6436073-5.7102128v-10.1771959l4.0556422-.0039064v-4.29749744l-.4716153-.0087578s-1.4096564-.02650443-3.5840269-.03282601v-6.70335408h-4.2592754v21.22353763c0 5.5251859 4.4427736 10.0206475 9.9028827 10.0206475zm22.3159957.0138612h-4.204475v-14.504621c0-3.1488184-2.5320259-5.7104859-5.64423-5.7104859-3.1113738 0-5.6433998 2.5616675-5.6433998 5.7104859v14.4907598h-4.2596905v-31.24418513h4.2596905v8.52791714c1.6373685-1.16304449 3.6062377-1.7944043 5.6433998-1.7944043 5.4304256 0 9.848705 4.49491559 9.848705 10.01991249zm-33.8936108-.0520847h.9010924v-4.1073461h-.9010924c-3.2058213 0-5.8142357-2.6391016-5.8142357-5.8826386v-4.510205c0-5.5084684-4.4288659-9.98977469-9.872784-9.98977469h-2.2015631c-5.4443333 0-9.8731992 4.48130629-9.8731992 9.98977469v4.510205c0 5.5083843 4.4288659 9.9899847 9.8731992 9.9899847h2.2015631c2.5810142 0 4.992853-.9740692 6.7908862-2.7424311l.306799-.3017977-.2605093-.3431714c-.6200329-.8165548-1.1132362-1.7162771-1.4661173-2.6748049l-.2603018-.7067147-.9494578.9553775c-1.1325409 1.1011308-2.610075 1.7061962-4.161299 1.7061962h-2.2015631c-3.2058214 0-5.8142358-2.6391016-5.8142358-5.8826386v-4.510205c0-3.243873 2.6084144-5.8831007 5.8142358-5.8831007h2.2015631c3.2058214 0 5.8140282 2.6392277 5.8140282 5.8831007v4.510205c0 5.5083843 4.4290734 9.9899847 9.8729915 9.9899847zm114.4283526-6.4942147c-.749146 0-1.450134-.4114276-1.828963-1.0719381-1.055945-1.8475392-1.613912-3.9510498-1.613912-6.0824299 0-6.7123406 5.399289-12.17338665 12.036361-12.17338665 1.163677 0 2.111059.96151004 2.111059 2.14326724 0 1.18226125-.95008 2.14379229-2.117702 2.14379229-4.2983 0-7.794106 3.53802592-7.794106 7.88632712 0 1.3806454.361184 2.7425781 1.045566 3.9402338.183913.3213294.280644.6913833.280644 1.0696279 0 1.1821982-.950288 2.1445063-2.118947 2.1445063zm2.202601-7.154347c0-1.8732035.787755-3.559679 2.046503-4.739504-.108771 1.3334751.53202 2.6730408 1.753611 3.3863291.546136.3196912 1.152884.4813641 1.761085.4813641 1.085213-.0007351 2.183711.273739 3.189838.8615828 1.603741.9369588 2.653666 2.4707713 3.034155 4.1638203-1.087497-.7619498-2.55486-.8707397-3.775621-.1575144-.547381.3192292-.988067.7695104-1.292375 1.3019092-.542192.9528572-1.326418 1.7776027-2.33296 2.3654466-1.603741.9360557-3.441213 1.0891597-5.080035.5767128 1.194814-.5725125 2.021386-1.8034352 2.021386-3.2303058 0-.6380384-.164608-1.2506645-.468294-1.7832523-.543644-.9513031-.857293-2.0513838-.857293-3.2265884zm1.2054 14.2408159c-4.294563 0-8.293952-2.3343637-10.436356-6.0911877-.582461-1.0196434-.232279-2.3299534.779037-2.9201074.982255-.5739826 2.333167-.2011984 2.89321.7827417 1.389107 2.4330728 3.978424 3.9441611 6.757674 3.9441611 1.359423 0 2.705353-.3658535 3.889581-1.0574468 1.182359-.6901232 2.167313-1.6885546 2.850241-2.8877644.184329-.3213294.452311-.5907841.776131-.7793814.979972-.5746126 2.331714-.2001483 2.893626.7844218.375092.6571502.373223 1.4770653-.003529 2.1384158-1.052624 1.8477492-2.573126 3.3882403-4.397937 4.4542979-1.827717 1.0675277-3.90245 1.6318494-6.001678 1.6318494zm11.880263-1.7868436c.32465.1902774.692269.2898265 1.063002.2898265.750807 0 1.451795-.4086974 1.826887-1.0666876 1.607062-2.8157279 2.034048-6.0968583 1.202494-9.239187-.831969-3.1432108-2.822426-5.7688292-5.60396-7.39379-1.823358-1.0650915-3.900582-1.627649-6.013095-1.627649-.755373.0017011-1.457399.4103775-1.83166 1.0662886-.583707 1.0235077-.236431 2.337304.774677 2.9285501.325274.1896264.690194.2897846 1.063833.2897846 1.364612 0 2.709297.3641943 3.888543 1.0529314 3.721443 2.1743921 5.001156 7.0068296 2.853355 10.7728944-.584537 1.0232137-.236015 2.3360439.775924 2.927038z" fill="#00a3e0"/></g></svg>