<svg height="48" viewBox="0 0 317 48" width="317" xmlns="http://www.w3.org/2000/svg"><g fill="none" fill-rule="evenodd"><path d="m88.0911 31.6298h-.5631c-3.3989 0-6.1637-2.801-6.1637-6.2437v-2.81891c0-2.0274-1.62806-3.67694-3.62953-3.67694h-1.37463c-2.00171 0-3.62988 1.64954-3.62988 3.67694v2.81891c0 2.0272 1.62817 3.6766 3.62988 3.6766h1.37463c.96814 0 1.89087-.3782 2.59783-1.0664l.5925-.5971.1626.4417c.221.6001.529 1.1627.9155 1.6717l.1626.2146-.1912.1885c-1.123 1.1053-2.62862 1.7141-4.23983 1.7141h-1.37463c-3.39905 0-6.16394-2.801-6.16394-6.2437v-2.81891c0-3.44281 2.76489-6.24359 6.16394-6.24359h1.37463c3.39893 0 6.16383 2.80078 6.16383 6.24359v2.81891c0 2.0272 1.628 3.6766 3.6294 3.6766h.5631zm1.3046 0h-.5631v-2.5671h.5631c2.0012 0 3.6291-1.6494 3.6291-3.6766v-2.81891c0-3.44281 2.7655-6.24359 6.1644-6.24359h.5625v2.56665h-.5625c-2.0015 0-3.6298 1.64954-3.6298 3.67694v2.81891c0 3.4427-2.7651 6.2437-6.1637 6.2437zm17.3966.0001h.0027l.1254-.0025c3.3195-.0773 6.0198-2.8777 6.0198-6.2413v-9.0623169h-2.5346v9.0623169c0 2.0206-1.6218 3.6698-3.6136 3.6766-2.0011 0-3.629-1.6493-3.629-3.6766v-9.0623169h-2.5345v9.0623169c0 3.4401 2.7651 6.2408 6.1638 6.2438z" fill="#97999b"/><g fill="#00a3e0"><path d="m18.6709 22.5535c0-1.9874 1.59607-3.60428 3.55823-3.60428h1.37402c1.96191 0 3.55825 1.61688 3.55825 3.60428v2.8174c0 1.9874-1.59634 3.6046-3.55825 3.6046h-1.37402c-1.96216 0-3.55823-1.6172-3.55823-3.6046zm3.55835 9.1275h1.37402c3.43483 0 6.22923-2.8307 6.22923-6.3101v-2.8174c0-3.47922-2.7944-6.30966-6.22923-6.30966h-1.37402c-1.28479 0-2.52661.39947-3.55823 1.1358v-5.37964h-2.67102v13.3709c0 3.4794 2.79443 6.3101 6.22925 6.3101zm33.20205-.0273h.6313v-2.694h-.6313c-1.9429 0-3.5235-1.6008-3.5235-3.5689v-6.36077l2.532-.00244v-2.68592l-.2944-.00549s-.88-.01654-2.2376-.02051v-4.189571h-2.659v13.264701c0 3.4533 2.7735 6.2629 6.1825 6.2629zm13.9319.0087h-2.625v-9.0654c0-1.96803-1.5806-3.56911-3.5236-3.56911-1.9425 0-3.5232 1.60108-3.5232 3.56911v9.0567h-2.6594v-19.527601h2.6594v5.329951c1.0222-.72692 2.2513-1.12152 3.5232-1.12152 3.3903 0 6.1486 2.80933 6.1486 6.26247zm-21.16-.0326h.5625v-2.5671h-.5625c-2.0014 0-3.6298-1.6494-3.6298-3.6766v-2.8189c0-3.44281-2.7651-6.24359-6.1637-6.24359h-1.3744c-3.3989 0-6.1638 2.80078-6.1638 6.24359v2.8189c0 3.4428 2.7649 6.2437 6.1638 6.2437h1.3744c1.6114 0 3.1172-.6088 4.2397-1.7141l.1915-.1885-.1626-.2146c-.3872-.5102-.695-1.0725-.9154-1.6717l-.1624-.4417-.5929.5971c-.7069.6882-1.6294 1.0664-2.5979 1.0664h-1.3744c-2.0015 0-3.6298-1.6494-3.6298-3.6766v-2.8189c0-2.02741 1.6283-3.67694 3.6298-3.67694h1.3744c2.0014 0 3.6299 1.64953 3.6299 3.67694v2.8189c0 3.4428 2.765 6.2437 6.1636 6.2437zm71.4388-4.0589c-.468 0-.906-.2571-1.142-.6699-.659-1.1548-1.008-2.4694-1.008-3.8016 0-4.19516 3.371-7.60831 7.514-7.60831.727 0 1.318.60095 1.318 1.33954 0 .73895-.593 1.33984-1.322 1.33984-2.683 0-4.866 2.2113-4.866 4.92893 0 .8629.226 1.7141.653 2.4626.115.2009.175.4321.175.6686 0 .7389-.593 1.3403-1.322 1.3403zm1.375-4.4715c0-1.17069.491-2.22477 1.277-2.96213-.068.83343.332 1.67065 1.095 2.11643.341.1999.72.3009 1.099.3009.678-.0005 1.364.171 1.992.5385 1.001.5855 1.657 1.5442 1.894 2.6023-.679-.4762-1.595-.5442-2.357-.0984-.342.1994-.617.4809-.807.8136-.338.5957-.828 1.1111-1.456 1.4785-1.002.585-2.149.6807-3.172.3604.746-.3578 1.262-1.1271 1.262-2.0189 0-.3987-.103-.7816-.292-1.1145-.339-.5946-.535-1.2822-.535-2.0167zm.752 8.9006c-2.681 0-5.178-1.459-6.5152-3.807-.3637-.6373-.1452-1.4562.4863-1.825.6129-.3587 1.4569-.1258 1.8059.4891.868 1.5206 2.484 2.4652 4.219 2.4652.849 0 1.689-.2287 2.428-.661.739-.4312 1.354-1.0553 1.78-1.8048.115-.2009.282-.3693.484-.4871.612-.3591 1.456-.1251 1.807.4903.234.4107.233.9231-.002 1.3365-.657 1.1548-1.607 2.1176-2.746 2.784-1.141.6671-2.436 1.0198-3.747 1.0198zm7.417-1.1169c.203.119.432.1812.664.1812.469 0 .906-.2555 1.14-.6667 1.004-1.7598 1.27-3.8106.751-5.7745-.519-1.9645-1.762-3.60546-3.499-4.62109-1.138-.66565-2.435-1.01727-3.753-1.01727-.472.00104-.911.25647-1.144.66644-.364.63971-.148 1.46082.484 1.83033.203.11853.43.18115.664.18115.852 0 1.691.2276 2.427.65804 2.324 1.359 3.123 4.3793 1.782 6.733-.365.6395-.148 1.46.484 1.8294z"/><path d="m171.6905 19.01581c-2.14007 0-3.88117 1.66804-3.88117 3.71831v2.87836c0 2.05032 1.7411 3.71832 3.88117 3.71832h.34089c2.14007 0 3.88131-1.668 3.88131-3.71832v-2.87836c0-2.05027-1.74124-3.71831-3.88131-3.71831zm-3.88122 18.98419h-2.80928v-15.26589c0-3.53424 3.00124-6.40971 6.69045-6.40971h.34089c3.68926 0 6.69046 2.87564 6.69046 6.40971v2.87836c0 3.53443-3.0012 6.40993-6.69046 6.40993h-.34089c-1.40482 0-2.76164-.4208-3.88117-1.1948z"/><path d="m206.687 31.9694h-2.6614v-9.24465c0-2.09099-1.77564-3.79228-3.95821-3.79228h-.34177c-2.18258 0-3.95839 1.70129-3.95839 3.79228v2.88005c0 2.091 1.77581 3.7921 3.95839 3.7921h.34177c1.0556 0 2.06145-.3904 2.83212-1.0993l.77209-.7353v.6589c0 .3794-.003 1.0281-.0057 1.5905-.0019.4291-.0039.8079-.0039.9772v.1532l-.1361.0803c-1.02572.6046-2.22175.9244-3.45851.9244h-.34177c-3.65008 0-6.61962-2.8451-6.61962-6.342v-2.88005c0-3.49692 2.96954-6.34185 6.61962-6.34185h.34177c3.65011 0 6.61961 2.84493 6.61961 6.34185z"/><path d="m192.5558 31.98h-2.7599v-9.2248c0-2.03027-1.72392-3.6822-3.84327-3.6822-2.11918 0-3.84328 1.65193-3.84328 3.6822v9.2154h-2.79635v-20.9706h2.79635v6.57377c1.10961-.76429 2.45298-1.17978 3.84328-1.17978 3.64107 0 6.60317 2.85359 6.60317 6.36121z"/><path d="m273.71457 31.9459h-.34195c-3.63751 0-6.607047-2.8356-6.61962-6.32083v-2.90109c0-3.49692 2.96972-6.34168 6.61962-6.34168h.34195c3.64993 0 6.61943 2.84476 6.61943 6.34168v2.88022c-.0108 3.4971-2.9803 6.3417-6.61943 6.3417zm-.34199-13.01422c-2.18257 0-3.9582 1.70129-3.9582 3.79228v2.88023c0 2.09081 1.77563 3.79191 3.9582 3.79191h.34195c2.18258 0 3.95817-1.7011 3.95817-3.79191v-2.88023c0-2.09099-1.77559-3.79228-3.95817-3.79228z"/></g><path d="m286.53106 27.1129c-.68443-1.1343-1.07969-2.45078-1.07969-3.85501 0-4.26053 3.60971-7.71639 8.05663-7.71639.7567 0 1.3643.587513 1.3643 1.31228 0 .72476-.6125 1.31261-1.3689 1.31261-2.93498 0-5.31447 2.27948-5.31447 5.09133 0 .92733.26156 1.79545.71348 2.54428.11617.1926.1808.4162.1808.6547 0 .7248-.61324 1.3123-1.36993 1.3123-.50628 0-.9451-.2648-1.18222-.6561zm4.04769-6.88115c-.84877.75309-1.38002 1.83023-1.38002 3.02595 0 .75072.21144 1.45275.57818 2.06012.20489.34028.3161.73108.3161 1.13888 0 .911-.55747 1.6969-1.36356 2.0622 1.10537.3272 2.34443.2295 3.42553-.3682.67859-.3754 1.20752-.902 1.57322-1.5101.2049-.3398.5028-.6275.8713-.8313.8234-.45569 1.8128-.38596 2.5457.1004-.2566-1.08083-.9644-2.06024-2.0455-2.65811-.6786-.37544-1.419-.55103-2.1516-.55052-.40955 0-.81862-.10332-1.18713-.30708-.82345-.45535-1.25518-1.31109-1.18222-2.16224zm6.39475 8.20445c-.683 1.135-1.6754 2.1214-2.9447 2.8236-3.85128 2.13-8.78009.8632-11.003748-2.8264-.378254-.6276-.151054-1.426.504161-1.788.655037-.3626 1.492647-.1481 1.870907.4794 1.4675 2.4351 4.7179 3.2694 7.2596 1.8635.83828-.4635 1.49228-1.1146 1.94318-1.8642.1161-.1925.286-.3578.5015-.4772.6552-.3621 1.4928-.1471 1.8711.4806.2532.4201.2335.9165-.002 1.3087zm-4.0248-9.32555c1.3675-.00067 2.7553.32964 4.0246 1.03184 3.8514 2.13018 5.1705 6.85301 2.9469 10.54271-.3783.6275-1.213.838-1.8683.4758-.655-.3625-.8801-1.1646-.502-1.7924 1.4675-2.435.5966-5.54868-1.9453-6.95494-.8381-.46367-1.7535-.68066-2.6566-.67998-.23234 0-.46662-.05836-.68213-.17746-.65522-.36255-.87959-1.16501-.50133-1.79257.25323-.42006.71188-.65215 1.18416-.653z" fill="#97999b"/><path d="m209.93223 31.9458h-2.66123v-15.5688h2.66123v1.27003c1.14043-.81841 2.52417-1.2639224 3.95768-1.2647707l.13547.0015269c.54312.0120454 1.08004.087372 1.59872.2241138l.2102.055477v2.739413l-.39915-.1644c-.48893-.20155-1.00921-.3047-1.54613-.30656-2.18133 0-3.95679 1.70112-3.95679 3.79211z" fill="#00a3e0"/><path d="m240.1807 31.9458h-2.6614v-9.22186c0-2.08369-1.7682-3.78482-3.9419-3.79211-2.1813 0-3.9566 1.70112-3.9566 3.79211v9.22186h-2.6612v-9.22186c0-2.08369-1.76821-3.78482-3.94158-3.79211-2.18133 0-3.95679 1.70112-3.95679 3.79211v9.22186h-2.66123v-15.5688h2.66123v1.27003c1.14043-.81841 2.52417-1.2639224 3.95768-1.2647707l.13529.0015269c2.02957.0452977 3.9196.9845048 5.1367 2.5327738 1.2516-1.592719 3.1989-2.5331131 5.2874-2.5343007l.1355.0015269c3.567.0793982 6.4669 2.9234838 6.4669 6.3401538z" fill="#00a3e0"/><path d="m254.403 31.9694h-2.6612v-9.24465c0-2.09099-1.77566-3.79228-3.95823-3.79228h-.34213c-2.18257 0-3.95803 1.70129-3.95803 3.79228v2.88005c0 2.091 1.77546 3.7921 3.95803 3.7921h.34213c1.0556 0 2.06144-.3904 2.83194-1.0993l.77229-.7353v.6589c0 .3794-.0032 1.0281-.0059 1.5904-.0019.4292-.0037.808-.0037.9773v.1532l-.1363.0803c-1.02589.6046-2.22175.9244-3.45833.9244h-.34213c-3.6499 0-6.61944-2.8451-6.61944-6.342v-2.88005c0-3.49692 2.96954-6.34185 6.61944-6.34185h.34213c3.64993 0 6.61943 2.84493 6.61943 6.34185z" fill="#00a3e0"/><path d="m255.570776 31.9472h-.579776v-2.5521h.579245c2.176025-.0054 3.946875-1.7058 3.946875-3.79022v-2.88005c0-2.08471-1.77085-3.78533-3.947583-3.79076h-.578537v-2.55177h.579245c3.643875.0054289 6.608105 2.8507 6.608105 6.34253v2.88005c0 3.49052-2.96423 6.33572-6.607574 6.34232" fill="#00a3e0"/><path d="m266.71079 31.9472h-.57907c-3.63874-.0112-6.59872-2.8563-6.59872-6.34232v-2.88005c0-3.48894 2.96281-6.3342169 6.60474-6.34253h.57978v2.55177h-.57925c-2.17425.00679-3.94386 1.7074-3.94386 3.79076v2.88005c0 2.07982 1.76696 3.78012 3.93873 3.79022h.57765z" fill="#00a3e0"/><path d="m148 0h1v48h-1z" fill="#e0e0e0" fill-rule="nonzero"/></g></svg>