<svg height="120" viewBox="0 0 288 120" width="288" xmlns="http://www.w3.org/2000/svg"><g fill="none" transform="translate(51 44)"><g fill="#000"><path d="m47.5440482 7.75757576h4.8195882v16.48484844h-3.1030342v-11.1020352c0-.3364282 0-.74015 0-1.3457131s0-1.0092652 0-1.3456935l-3.0370039 13.7934418h-3.2350753l-3.037004-13.7934418v1.3456935 1.3457131 11.1020352h-3.1030342v-16.48484844h4.8856185l2.9049628 12.91874404z"/><path d="m56.2424242 10.706081h2.909091v-2.94850524h-2.909091zm2.909091 1.4072424h-2.909091v12.1291008h2.909091z"/><path d="m69.4026061 16.1243889c-.0692728-.4620023-.207798-.8580153-.4848485-1.1880004-.3463233-.4620024-.969697-.7260174-1.7316162-.7260174-1.1082222 0-1.8701212.5280109-2.2857172 1.5840134-.2077777.5280109-.346303 1.3199984-.346303 2.1780137 0 .8579961.1385253 1.5840135.346303 2.1120051.415596.9900133 1.1082425 1.5180049 2.2164647 1.5180049.761899 0 1.3160202-.1979872 1.6623232-.5940002.3463233-.3959938.4848485-.9240047.5541212-1.5180049h3.3246667c-.0692525.9240047-.4155758 1.8480093-1.1082222 2.7060054-1.0389495 1.3860069-2.5627677 2.0460157-4.5714142 2.0460157-2.0086666 0-3.4632121-.5940002-4.4329091-1.7160113-.9696969-1.1219919-1.4545454-2.6400161-1.4545454-4.4220168 0-2.0460157.5541131-3.63001 1.5930727-4.752023 1.0389677-1.1220073 2.4935131-1.7160095 4.3636344-1.7160095 1.5930707 0 2.8398383.3300025 3.8787878.9900056.969697.660003 1.5930707 1.8480169 1.8008687 3.5640091h-3.3246666z"/><path d="m81.1934783 11.6363636h.2610672v3.3389011c-.1957909 0-.3916007-.0681494-.5221343-.0681494s-.2610672 0-.3916198 0c-1.2400784 0-2.0885751.4088564-2.4801758 1.2946788-.2610862.4769858-.3263435 1.2265492-.3263435 2.180521v5.8601091h-3.0676054v-12.3334969h2.9370719v2.180515c.456877-.8176988.913754-1.3628261 1.2400974-1.7035292.5874106-.4769858 1.3053547-.7495495 2.2191088-.7495495z"/><path d="m88.7272827 24.2424242c2.1238466 0 3.6996167-.5878449 4.7272702-1.8288593 1.0276536-1.2410144 1.5072106-2.743289 1.5757501-4.4415182 0-1.6982102-.5480965-3.2005038-1.5757501-4.4415068-1.0276535-1.2410125-2.6034236-1.8941763-4.7272702-1.8941763-2.1238666 0-3.6996167.6531638-4.7272822 1.8941763-1.0276575 1.241003-1.5757581 2.7432966-1.5757581 4.4415068 0 1.6982292.5481006 3.2005038 1.5757581 4.4415182 1.0276655 1.2410144 2.6034156 1.8288593 4.7272822 1.8288593zm2.877342-6.2703775c0 1.1757089-.2740583 2.0901385-.7536153 2.743289-.4795569.6531695-1.2331522.9797542-2.1922662.9797542-.9592539 0-1.7128492-.3265847-2.1924062-.9797542-.479557-.6531505-.7536152-1.5675801-.7536152-2.743289 0-1.1756898.2740582-2.0901195.7536152-2.743289.5480966-.6531504 1.2331523-.9797352 2.1924062-.9797352.959114 0 1.7127093.3265848 2.1922662.9797352.479557.6531695.7536153 1.5675992.7536153 2.743289z"/><path d="m104.560062 13.6503459c-.468111-.8727244-1.136816-1.4097856-1.872444-1.7454506-.401325-.2013992-.93634-.2685317-1.538161-.2685317-1.6719482 0-2.9425914.6041967-3.8119101 1.812586-.8694357 1.2755188-1.3375469 2.7524496-1.3375469 4.5650278 0 1.8797193.4681112 3.3566501 1.4043355 4.4307726.8694338 1.0741226 2.140077 1.6111937 3.6782175 1.6111937 1.003146 0 1.872562-.2685258 2.474383-.7384752.401325-.2013845.668822-.6041927 1.003126-1.1412442v.8055772c0 1.1412638-.13369 2.0140019-.401207 2.4839317-.401208.7384556-1.136934 1.1412442-2.27377 1.1412442-.802532 0-1.40445-.1342629-1.738754-.4027886-.200711-.1342629-.3344208-.4027886-.4013245-.8055968h-3.4105895c.0667866 1.2083854.6018054 2.1482647 1.6049373 2.7524574.9363335.6041927 2.2069767.9398597 3.7451367.9398597 2.541267 0 4.280022-.7384752 5.149341-2.0811235.535014-.8055968.802532-2.0139822.802532-3.5580346v-11.5468557h-3.076302zm-.066903 4.2965098c0 1.2083854-.200614 2.1482451-.735629 2.6853162-.468111.5370515-1.136816.8055772-1.939348.8727185-1.07003 0-1.872562-.5370711-2.2737695-1.5440524-.2007305-.5370711-.3344208-1.1412638-.3344208-1.8797194 0-.8055968.1336903-1.5440524.3344208-2.0811235.4012075-1.0069813 1.2037395-1.5440524 2.2737695-1.5440524.802532 0 1.471237.2685257 1.939348.8727185.468111.6042123.735629 1.4769307.735629 2.6181945z"/><path d="m120.166137 13.9137414c-.522878-.7894538-1.17669-1.3815428-2.026455-1.7762688-.849898-.3947261-1.765101-.5920903-2.745685-.4605154-1.699797 0-3.072573.5263037-4.183963 1.6446953-1.11128 1.1183992-1.634276 2.6972916-1.634276 4.7367174 0 2.1709986.653686 3.7499102 1.830486 4.7367155 1.176686.9868246 2.549462 1.4473388 4.118458 1.4473388 1.895768 0 3.399345-.5263102 4.445348-1.7104843.653793-.7236598 1.045985-1.4473388 1.111385-2.1709986h-3.137973c-.196086.3289415-.392191.592087-.653678.7894558-.457592.3289415-.980603.526291-1.699682.526291-.653812 0-1.24209-.1315727-1.699682-.4605142-.784498-.4605143-1.176804-1.3157469-1.24209-2.499921h8.563791c0-1.0526013-.0654-1.8420571-.130686-2.3683673-.1308-.9210286-.457592-1.7104844-.915298-2.4341442zm-7.517807 2.7630857c.130686-.7894558.392192-1.3815428.849898-1.8420571.457592-.4605143 1.04587-.7236598 1.764968-.7236598.719212 0 1.30749.1973495 1.830483.6578638.522992.4605143.784498 1.0526205.849898 1.9078531z"/><path d="m132.640273 12.5982412c.785279.6809464 1.177909 1.7704524 1.177909 3.3366469v8.3075361h-3.141097v-7.490417c0-.6809325-.065448-1.1575953-.261772-1.4980715-.327183-.6128492-.850708-.9533254-1.701416-.9533254-1.047051 0-1.766883.4766627-2.159513 1.361885-.196324.4766627-.327201 1.0895119-.327201 1.9066508v6.6732781h-3.075668v-12.2570362h3.01022v1.7704564c.392649-.6128473.785279-1.08951 1.112481-1.361887.654402-.4766627 1.439681-.7490421 2.421265-.7490421 1.177909-.0680946 2.159513.2723794 2.944792.9533259z"/><path d="m146.347955 13.9137414c-.522878-.7894538-1.17669-1.3815428-2.026455-1.7762688-.784498-.3947261-1.765101-.5920903-2.745685-.4605154-1.699797 0-3.072573.5263037-4.183963 1.6446953-1.11128 1.1183992-1.634276 2.6972916-1.634276 4.7367174 0 2.1709986.653686 3.7499102 1.830486 4.7367155 1.176686.9868246 2.549462 1.4473388 4.118458 1.4473388 1.895768 0 3.399345-.5263102 4.445348-1.7104843.653793-.7236598 1.045985-1.4473388 1.111385-2.1709986h-3.137972c-.196087.3289415-.392192.592087-.653679.7894558-.457592.3289415-.980603.526291-1.699682.526291-.653812 0-1.24209-.1315727-1.699682-.4605142-.784498-.4605143-1.176804-1.3157469-1.24209-2.499921h8.563791c0-1.0526013-.0654-1.8420571-.130686-2.3683673-.1308-.9210286-.457592-1.7104844-.915298-2.4341442zm-7.452521 2.7630857c.130686-.7894558.392192-1.3815428.849898-1.8420571.392192-.4605143 1.04587-.7236598 1.764968-.7236598.719212 0 1.30749.1973495 1.830483.6578638.522992.4605143.784498 1.0526205.849898 1.9078531z"/><path d="m148.363636 14.3171196v-2.2625487h1.663698v-3.32729817h3.127747v3.32729817h1.929897v2.2625487h-1.929897v6.3883992c0 .4658206.066557.7985524.19965.9316412s.532372.1996429 1.131319.1996429h.332723.332742v2.3291029l-1.464042.0665347c-1.464062.0665541-2.462269-.1996429-3.061217-.7985523-.33273-.3327318-.532374-.9316412-.532374-1.6636394v-7.4531292z"/><path d="m157.090909 10.706081h2.909091v-2.94850524h-2.909091zm2.909091 1.4072424h-2.909091v12.1291008h2.909091z"/><path d="m171.220788 16.1243889c-.069273-.4620023-.207798-.8580153-.484849-1.1880004-.346323-.4620024-.969697-.7260174-1.731616-.7260174-1.108222 0-1.870121.5280109-2.285717 1.5840134-.207778.5280109-.346303 1.3199984-.346303 2.1780137 0 .8579961.138525 1.5840135.346303 2.1120051.415596.9900133 1.108242 1.5180049 2.216465 1.5180049.761899 0 1.31602-.1979872 1.662323-.5940002.346323-.3959938.484848-.9240047.554121-1.5180049h3.324667c-.069253.9240047-.415576 1.8480093-1.108222 2.7060054-1.03895 1.3860069-2.562768 2.0460157-4.571415 2.0460157-2.008666 0-3.463212-.5940002-4.432909-1.7160113-.969697-1.1219919-1.454545-2.6400161-1.454545-4.4220168 0-2.0460157.554113-3.63001 1.593073-4.752023 1.038967-1.1220073 2.493513-1.7160095 4.363634-1.7160095 1.593071 0 2.839838.3300025 3.878788.9900056.969697.660003 1.593071 1.8480169 1.800869 3.5640091h-3.324667z"/><path d="m178.747484 19.9968607c.064636.5225394.193926.9144296.387871 1.1756898.387871.3919093 1.098996.587864 2.133337.587864.581816 0 1.098996-.0653246 1.422213-.2612792.323235-.1959356.51718-.4572149.51718-.7837996 0-.3265657-.129291-.5878449-.452526-.7837805-.25858-.1959547-1.357576-.5225394-3.167678-.9144297-1.292922-.3265847-2.262628-.7184941-2.7798-1.2410144-.517171-.5225394-.840404-1.1757089-.840404-2.1554441 0-1.1103843.452525-2.024814 1.292929-2.8086078.840408-.7837977 2.068694-1.1756956 3.555561-1.1756956s2.650498.3265829 3.555549.9144297 1.422231 1.6329047 1.551522 3.0698737h-3.038388c-.064636-.3919093-.129291-.718475-.323236-.9144296-.323235-.3919093-.905051-.6531695-1.745447-.6531695-.64647 0-1.163632.1306301-1.422231.3265847-.258581.1959547-.452526.4572149-.452526.718475 0 .3265848.129291.5878449.452526.7837996s1.357576.4572148 3.167678.8491241c1.228286.2612602 2.133337.718475 2.715153 1.30632.581816.5878449.905051 1.3063199.905051 2.2207496 0 1.1757088-.452525 2.155444-1.292922 2.8739381-.840415.718475-2.197991 1.1103652-4.008093 1.1103652s-3.167679-.3918902-4.072722-1.1756898c-.905051-.7837996-1.292929-1.7635347-1.292929-3.0045492h3.232332z"/></g><path d="m15.9667609 8.00002917c3.4594127 0 5.7213432 1.66666545 7.4512145 3.59999273.1329178.1333503.1994737.2666812.3325855.4000121s.1996677.2666618.3325855.3999927c.598809.7333492 1.0645063 1.5333346 1.5302036 2.2000085.3325855.4666679.5988091.9333358.9313945 1.333348.1331118.1333309.1996677.2666618.3325855.3999927.1331118.1333309.1996677.2666618.3327795.3999927 1.26398 1.533354 2.52796 2.5333455 4.3907491 2.6666764.2662236-1.1333224.3991414-2.2666643.3991414-3.4666618 0-1.2000171-.1329178-2.4000146-.3991414-3.4666813-1.8627891.1333309-3.1267691 1.0666667-4.3907491 2.6666764-.1996677-.333337-.4656973-.666674-.7319209-1.0666667-.5322531-.7333491-1.0645063-1.6000097-1.7296773-2.4666897 1.330536-1.5333346 2.9936573-2.86666305 5.2557818-3.4000061-2.7941836-4.86666545-8.0499654-8.2000158-14.0375322-8.2000158-5.98752809 0-11.24325168 3.33335035-13.97091822 8.2000158 2.26196927.53334305 3.85863177 1.8666715 5.25572359 3.4000061.13305359.1333503.19959009.2666812.33264368.4000121s.19959009.2666618.33264368.3999927c.66528736.8000049 1.19750173 1.6666849 1.7297355 2.4666703.26610718.4000122.46569727.7333492.73180447 1.0666862.1330536.1333309.1995901.2666618.3326437.4666678.1330536.1333309.1995901.2666618.3326436.4666679 1.3970919 1.9333273 2.7941837 3.2666946 4.9896165 3.2666946 2.1954327 0 3.5925439-1.3333673 4.9896358-3.2666946.1331118.2666618.3325854.4666679.4656972.7333297.5988091.8666606 1.1974241 1.8666132 1.929345 2.7332544-1.6633154 1.9333661-3.9918018 3.6001482-7.4512145 3.6001482-3.459471 0-5.7214209-1.6667821-7.4511564-3.6001482-.13305359-.1331948-.19959009-.2665841-.33264368-.3999733-.1330536-.1331948-.19957069-.266584-.33264369-.3999733-.59875086-.7333102-1.06444813-1.5333151-1.5301454-2.1999696-.33264369-.4666679-.59875087-.9333358-.93139455-1.3333479-.13305359-.1333309-.19957068-.2666618-.33264368-.3999927-.13305359-.1333309-.19957069-.2666813-.33262428-.4000122-1.26403822-1.5333345-2.52807645-2.533326-4.39086748-2.6666764-.19958543 1.0666862-.33264174 2.2666837-.33264174 3.4666813s.13305631 2.4000146.39916854 3.4666229c1.86278132-.1332726 3.12681955-1.0666083 4.39085778-2.666618.19959009.3333369.46569727.6666739.73180445 1.0666666.53223377.7333297 1.06446754 1.5999514 1.7297355 2.4665926-1.33055532 1.5333928-2.99375432 2.8667019-5.25572359 3.4000644 2.72766654 4.9334573 7.98339013 8.2666326 13.97091822 8.2666326 5.9875668 0 11.2433486-3.3331753 13.9709763-8.199938-2.2619304-.5333625-3.8586899-1.8666715-5.2557818-3.4000644-.1331118-.1331948-.1996677-.2665841-.3325854-.3999733-.1331118-.1333892-.1996677-.266584-.3327795-.3999733-.665171-.8000048-1.1974241-1.6666654-1.7296773-2.4666703-.2660296-.4000121-.4656973-.7333297-.7317269-1.0666666-.1331118-.1333309-.1996677-.2666813-.3327795-.4666679-.1329177-.1333309-.1994736-.2666813-.3325854-.4666679-1.3970919-1.9333467-2.7941643-3.2666752-4.9895776-3.2666752-2.1954328 0-3.5925246 1.3333285-4.9896164 3.2666752-.1330536-.2666813-.3326437-.4666679-.4656973-.7333491-.59875088-.8666606-1.19752115-1.8666716-1.9293256-2.7333322 1.7297355-2.00000238 3.9916854-3.66666783 7.4511564-3.66666783z" fill="#f00"/></g></svg>