<svg height="120" viewBox="0 0 288 120" width="288" xmlns="http://www.w3.org/2000/svg"><g fill="none" transform="translate(48 40)"><path d="m171.583025 23.957c-.96625-1.6715-1.52425-3.6115-1.52425-5.68075 0-6.27825 5.096-11.37075 11.374-11.37075 1.06825 0 1.926.86575 1.926 1.93375s-.86475 1.93425-1.9325 1.93425c-4.1435 0-7.50275 3.359-7.50275 7.5025 0 1.3665.36925 2.64575 1.00725 3.74925.164.28375.25525.61325.25525.96475 0 1.068-.86575 1.93375-1.934 1.93375-.71475 0-1.33425-.39025-1.669-.96675zm5.7145-10.14c-1.19825 1.10975-1.94825 2.697-1.94825 4.459 0 1.10625.2985 2.14075.81625 3.03575.28925.5015.44625 1.07725.44625 1.67825 0 1.3425-.787 2.5005-1.925 3.03875 1.5605.48225 3.30975.33825 4.836-.5425.958-.55325 1.70475-1.32925 2.221-2.22525.28925-.50075.70975-.92475 1.23-1.225 1.1625-.6715 2.55925-.56875 3.594.148-.36225-1.59275-1.3615-3.036-2.88775-3.917-.958-.55325-2.00325-.812-3.0375-.81125-.57825 0-1.15575-.15225-1.676-.4525-1.1625-.671-1.772-1.932-1.669-3.18625zm9.02765 12.09c-.96425 1.6725-2.36525 3.126-4.15725 4.16075-5.437 3.13875-12.39525 1.272-15.534503-4.165-.534-.92475-.213249-2.10125.71175-2.63475.92475-.53425 2.107253-.21825 2.641253.7065 2.07175 3.58825 6.6605 4.81775 10.24875 2.746 1.1835-.683 2.10675-1.6425 2.74325-2.747.164-.28375.40375-.52725.708-.70325.925-.5335 2.1075-.21675 2.6415.70825.3575.619.32975 1.3505-.00275 1.9285zm-5.68195-13.742c1.9305-.001 3.88975.48575 5.68175 1.5205 5.437275 3.139 7.299525 10.0985 4.16025 15.5355-.534.92475-1.7125 1.235-2.6375.70125-.92475-.53425-1.2425-1.71625-.70875-2.64125 2.07175-3.58825.84225-8.1765-2.74625-10.24875-1.18325-.68325-2.4755-1.003-3.7505-1.002-.328 0-.65875-.086-.963-.2615-.925-.53425-1.24175-1.71675-.70775-2.6415.3575-.619 1.005-.961 1.67175-.96225z" fill="#97999b"/><path d="m9.445325 12.02525c-3.02125 0-5.47925 2.458-5.47925 5.47925v4.2415c0 3.02125 2.458 5.47925 5.47925 5.47925h.48125c3.02125 0 5.4795-2.458 5.4795-5.47925v-4.2415c0-3.02125-2.45825-5.47925-5.4795-5.47925zm125.878751-.1398072c1.703106-2.26374822 4.408913-3.73369677 7.450174-3.7409428h.8185v3.76025h-.81775c-3.0695.01-5.56775 2.516-5.56775 5.586v4.244c0 3.06475 2.4945 5.57025 5.5605 5.58525h.8155v3.76075h-.8175c-3.037678-.009757-5.74028-1.4797558-7.441889-3.7418053-1.703754 2.2655138-4.411696 3.7360357-7.455361 3.7418053h-.8185v-3.76075h.81775c3.072-.008 5.572-2.51375 5.572-5.58525v-4.244c0-3.072-2.5-5.578-5.573-5.586h-.81675v-3.76025h.81775c3.044268.00473425 5.752514 1.47498626 7.456326 3.7409428zm-131.358076 28.1145572h-3.966v-22.4955c0-5.208 4.237-9.44525 9.44525-9.44525h.48125c5.20825 0 9.44525 4.2375 9.44525 9.44525v4.2415c0 5.20825-4.237 9.4455-9.44525 9.4455h-.48125c-1.98325 0-3.89875-.62-5.47925-1.7605zm54.882-8.8865h-3.75725v-13.62275c0-3.08125-2.50675-5.58825-5.588-5.58825h-.4825c-3.08125 0-5.58825 2.507-5.58825 5.58825v4.244c0 3.08125 2.507 5.588 5.58825 5.588h.4825c1.49025 0 2.91025-.57525 3.99825-1.62l1.09-1.0835v.971c0 .559-.00425 1.515-.008 2.34375-.00275.63225-.0055 1.1905-.0055 1.44v.22575l-.19225.11825c-1.448.891-3.1365 1.36225-4.8825 1.36225h-.4825c-5.153 0-9.34525-4.1925-9.34525-9.3455v-4.244c0-5.153 4.19225-9.34525 9.34525-9.34525h.4825c5.153 0 9.34525 4.19225 9.34525 9.34525zm-19.945.0155h-3.89625v-13.5935c0-2.99175-2.43375-5.426-5.42575-5.426-2.99175 0-5.42575 2.43425-5.42575 5.426v13.57975h-3.94775v-30.902h3.94775v9.687c1.5665-1.12625 3.463-1.7385 5.42575-1.7385 5.14025 0 9.322 4.205 9.322 9.37375zm114.575-.05025h-.48275c-5.13525 0-9.3275-4.1785-9.34525-9.31425v-4.275c0-5.153 4.1925-9.345 9.34525-9.345h.48275c5.15275 0 9.345 4.192 9.345 9.345v4.24425c-.01525 5.15325-4.2075 9.345-9.345 9.345zm-.482675-19.1775c-3.08125 0-5.588 2.507-5.588 5.58825v4.24425c0 3.081 2.50675 5.58775 5.588 5.58775h.48275c3.08125 0 5.588-2.50675 5.588-5.58775v-4.24425c0-3.08125-2.50675-5.58825-5.588-5.58825zm-89.563325 19.1775h-3.757v-22.942h3.757v1.8715c1.61-1.206 3.5635-1.8625 5.58725-1.86375l.19125.00225c.76675.01775 1.52475.12875 2.257.33025l.29675.08175v4.03675l-.5635-.24225c-.69025-.297-1.42475-.449-2.18275-.45175-3.0795 0-5.586 2.50675-5.586 5.588zm42.7155 0h-3.75725v-13.58925c0-3.0705-2.49625-5.57725-5.565-5.588-3.0795 0-5.58575 2.50675-5.58575 5.588v13.58925h-3.757v-13.58925c0-3.0705-2.49625-5.57725-5.5645-5.588-3.0795 0-5.586 2.50675-5.586 5.588v13.58925h-3.757v-22.942h3.757v1.8715c1.61-1.206 3.5635-1.8625 5.58725-1.86375l.191.00225c2.86525.06675 5.5335 1.45075 7.25175 3.73225 1.767-2.347 4.516-3.73275 7.4645-3.7345l.19125.00225c5.03575.117 9.12975 4.308 9.12975 9.34275zm20.0755.03475h-3.757v-13.62275c0-3.08125-2.50675-5.58825-5.588-5.58825h-.483c-3.08125 0-5.58775 2.507-5.58775 5.58825v4.244c0 3.08125 2.5065 5.588 5.58775 5.588h.483c1.49025 0 2.91025-.57525 3.998-1.62l1.09025-1.0835v.971c0 .559-.0045 1.515-.00825 2.3435-.00275.6325-.00525 1.19075-.00525 1.44025v.22575l-.1925.11825c-1.44825.891-3.1365 1.36225-4.88225 1.36225h-.483c-5.15275 0-9.345-4.1925-9.345-9.3455v-4.244c0-5.153 4.19225-9.34525 9.345-9.34525h.483c5.15275 0 9.345 4.19225 9.345 9.34525z" fill="#00a3e0"/></g></svg>