<svg fill="none" height="28" viewBox="0 0 165 28" width="165" xmlns="http://www.w3.org/2000/svg"><path d="m102.228 27.4818h-.798c-4.8201 0-8.7407-3.9213-8.7407-8.7412v-3.9465c0-2.8384-2.3086-5.14771-5.1468-5.14771h-1.9492c-2.8386 0-5.1475 2.30931-5.1475 5.14771v3.9465c0 2.8381 2.3089 5.1472 5.1475 5.1472h1.9492c1.3729 0 2.6814-.5294 3.6837-1.4929l.8403-.836.2306.6184c.3135.8401.7503 1.6278 1.2982 2.3404l.2306.3004-.271.264c-1.5926 1.5473-3.7275 2.3997-6.0124 2.3997h-1.9492c-4.8201 0-8.7408-3.9213-8.7408-8.7412v-3.9465c0-4.8199 3.9207-8.74104 8.7408-8.74104h1.9492c4.8199 0 8.7406 3.92114 8.7406 8.74104v3.9465c0 2.8381 2.3087 5.1472 5.1469 5.1472h.798z" fill="#97999b"/><path d="m104.078 27.4818h-.798v-3.594h.798c2.838 0 5.147-2.3091 5.147-5.1472v-3.9465c0-4.8199 3.921-8.74104 8.741-8.74104h.798v3.59333h-.798c-2.838 0-5.147 2.30931-5.147 5.14771v3.9465c0 4.8199-3.921 8.7412-8.741 8.7412z" fill="#97999b"/><path d="m128.748 27.4818h.003l.178-.0034c4.707-.1083 8.537-4.0288 8.537-8.7378v-12.68733h-3.595v12.68733c0 2.8288-2.299 5.1377-5.124 5.1472-2.837 0-5.146-2.3091-5.146-5.1472v-12.68733h-3.594v12.68733c0 4.816 3.921 8.7372 8.741 8.7412z" fill="#97999b"/><g fill="#00a3e0"><path clip-rule="evenodd" d="m8.83336 27.5535h1.94834c4.8707 0 8.8334-3.9631 8.8334-8.8342v-3.9443c0-4.871-3.9627-8.83362-8.8334-8.83362h-1.94834c-1.82198 0-3.58291.55925-5.04581 1.59011v-7.53149h-3.78755v18.7193c0 4.8711 3.96262 8.8342 8.83336 8.8342zm-5.04581-12.7785c0-2.7825 2.26338-5.04607 5.04581-5.04607h1.94834c2.782 0 5.0458 2.26357 5.0458 5.04607v3.9443c0 2.7824-2.2638 5.0464-5.0458 5.0464h-1.94834c-2.78243 0-5.04581-2.264-5.04581-5.0464z" fill-rule="evenodd"/><path d="m55.9153 27.5152h.8954v-3.7716h-.8954c-2.755 0-4.9962-2.241-4.9962-4.9965v-8.90501l3.5903-.0034v-3.76032l-.4175-.00766s-1.2479-.02318-3.1728-.02872v-5.865432h-3.7708v18.570542c0 4.8346 3.9331 8.7681 8.767 8.7681z"/><path d="m75.6714 27.5273h-3.7222v-12.6915c0-2.7552-2.2415-4.99668-4.9967-4.99668-2.7545 0-4.996 2.24148-4.996 4.99668v12.6794h-3.7712v-27.338642h3.7712v7.461932c1.4495-1.01767 3.1925-1.57012 4.996-1.57012 4.8076 0 8.7189 3.93303 8.7189 8.76743z"/><path d="m45.6657 27.4818h.7977v-3.594h-.7977c-2.8382 0-5.1473-2.3091-5.1473-5.1472v-3.9465c0-4.8199-3.9209-8.74104-8.7404-8.74104h-1.949c-4.8199 0-8.7406 3.92114-8.7406 8.74104v3.9465c0 4.8199 3.9207 8.7412 8.7406 8.7412h1.949c2.2851 0 4.4202-.8524 6.012-2.3997l.2716-.264-.2306-.3004c-.549-.7143-.9855-1.5016-1.298-2.3404l-.2304-.6184-.8407.836c-1.0025.9635-2.3106 1.4929-3.6839 1.4929h-1.949c-2.8382 0-5.1473-2.3091-5.1473-5.1472v-3.9465c0-2.8384 2.3091-5.1477 5.1473-5.1477h1.949c2.8381 0 5.1473 2.3093 5.1473 5.1477v3.9465c0 4.8199 3.9209 8.7412 8.7404 8.7412z"/><path d="m146.968 21.7993c-.663 0-1.283-.3599-1.619-.9379-.935-1.6167-1.429-3.4572-1.429-5.3221 0-5.87334 4.78-10.65176 10.656-10.65176 1.03 0 1.869.84133 1.869 1.87538 0 1.03447-.841 1.8758-1.875 1.8758-3.805 0-6.9 3.09578-6.9 6.90058 0 1.208.32 2.3997.926 3.4476.163.2812.248.605.248.936 0 1.0344-.841 1.8764-1.876 1.8764z"/><path d="m148.918 15.5393c0-1.6391.698-3.1147 1.812-4.1471-.096 1.1668.471 2.3389 1.552 2.963.484.2798 1.021.4212 1.56.4212.96-.0006 1.933.2396 2.824.7539 1.419.8199 2.349 2.1619 2.686 3.6434-.963-.6667-2.262-.762-3.343-.1379-.484.2793-.875.6733-1.144 1.1391-.48.8339-1.174 1.5555-2.065 2.0699-1.42.8189-3.047.953-4.498.5045 1.058-.5009 1.79-1.578 1.79-2.8264 0-.5582-.146-1.0943-.415-1.5604-.481-.8324-.759-1.7949-.759-2.8232z"/><path d="m149.985 28c-3.802 0-7.342-2.0426-9.239-5.3298-.515-.8922-.205-2.0387.69-2.555.869-.5023 2.065-.1762 2.561.6847 1.23 2.129 3.522 3.4513 5.983 3.4513 1.203 0 2.395-.3202 3.443-.9254 1.047-.6037 1.919-1.4773 2.523-2.5267.164-.2812.401-.5169.688-.682.867-.5027 2.064-.1751 2.561.6864.332.575.331 1.2923-.003 1.8712-.932 1.6167-2.278 2.9647-3.893 3.8975-1.618.9341-3.455 1.4278-5.314 1.4278z"/><path d="m160.503 26.4365c.287.1665.613.2535.941.2535.665 0 1.285-.3575 1.617-.9332 1.423-2.4637 1.801-5.3349 1.065-8.0843-.737-2.7503-2.499-5.0478-4.961-6.4696-1.614-.932-3.453-1.4242-5.323-1.4242-.669.00149-1.291.3591-1.622.933-.517.8956-.209 2.0451.686 2.5625.288.1659.611.2535.941.2535 1.209 0 2.399.3187 3.443.9214 3.295 1.9026 4.427 6.1309 2.526 9.4262-.517.8953-.209 2.044.687 2.5612z"/></g></svg>