<svg width="50" height="72" fill="none" xmlns="http://www.w3.org/2000/svg"><path d="M43.34 33.635a9.853 9.853 0 01-.796 1.992 13.82 13.82 0 01-1.5 2.269 15.047 15.047 0 01-1.45 1.575 18.559 18.559 0 01-3.03 2.29c-.408.244-.807.502-1.235.708a15.265 15.265 0 01-3.483 1.208c-.59.124-1.183.212-1.783.276-.707.077-1.415.108-2.121.07-.378-.02-.764.008-1.15-.108.296-.755.553-1.535.871-2.293.381-.906.783-1.802 1.234-2.675a34.067 34.067 0 012.387-3.968 28.192 28.192 0 011.806-2.319 23.496 23.496 0 011.786-1.852c1.003-.925 2.092-1.74 3.342-2.31a6.735 6.735 0 012.061-.594c.547-.06 1.067-.028 1.582.172.604.234 1.022.663 1.323 1.217.27.5.394 1.04.456 1.608.103.938-.052 1.838-.3 2.734zM32.066 47.26l.785-.544c.56-.39 1.11-.793 1.614-1.257.38-.351.82-.637 1.182-1.01.087-.091.24-.192.133-.322-.102-.125-.25-.041-.369.041-.556.388-1.102.792-1.673 1.156-.697.443-1.387.897-2.12 1.283-.748.394-1.5.781-2.27 1.128-.625.282-1.285.49-1.905.782-.86.406-1.762.686-2.665.962-.763.232-1.545.394-2.33.545a14.95 14.95 0 01-1.818.23c-.712.05-1.422.02-2.133.027-.32.003-.64-.063-.96-.098.029-.054.08-.072.143-.076.484-.028.97-.041 1.451-.093.57-.06 1.145-.094 1.71-.207.385-.077.782-.086 1.17-.148.624-.1 1.244-.224 1.84-.445a.553.553 0 00.26-.205c-.114-.098-.225-.096-.374-.082-.443.042-.876.136-1.314.2-.487.07-.973.151-1.462.213-.275.035-.55.067-.825.094-.954.094-1.911.146-2.87.135a1.992 1.992 0 01-.672-.108c.422-.119.82-.171 1.224-.205.708-.059 1.418-.079 2.123-.17.485-.064.977-.079 1.462-.143.407-.054.813-.131 1.212-.228 1.762-.431 3.511-.909 5.224-1.51.142-.05.274-.127.417-.174.107-.035.122-.112.096-.19-.03-.086-.104-.153-.207-.125-.568.152-1.138.297-1.7.467-.407.123-.823.203-1.237.288-.742.153-1.485.3-2.23.437-.483.089-.97.163-1.457.234-.652.095-1.309.137-1.965.189-.804.063-1.608.103-2.412.073-.596-.022-1.19-.072-1.787-.084-1.116-.023-2.204-.237-3.29-.478-.667-.148-1.335-.29-1.98-.507-.692-.231-1.4-.427-2.05-.841.252-.006.455.1.666.155.953.25 1.905.5 2.872.686.788.151 1.58.283 2.374.4.398.06.806.046 1.205.1.617.085 1.238.103 1.855.17.738.08 1.483.078 2.221.038.529-.028 1.061.01 1.586-.08.144-.024.324-.068.336-.222.01-.123-.166-.148-.281-.194-.076-.03-.144-.027-.214-.028-.775-.002-1.549-.001-2.323-.001-.758 0-1.508-.13-2.267-.141-.466-.006-.932-.069-1.396-.13a58.847 58.847 0 01-2.345-.342 23.768 23.768 0 01-3.622-.948 2.33 2.33 0 01-.502-.25c.308-.07.55.073.799.132.632.149 1.273.245 1.907.38.67.145 1.343.273 2.018.392.372.066.75.097 1.124.148.403.055.804.119 1.207.17.262.034.526.011.792.045.55.07 1.106.11 1.662.148.93.063 1.861.107 2.792.077a56.91 56.91 0 001.809-.093c.451-.029.897-.148 1.345-.229.376-.068.753-.133 1.127-.21.124-.026.244-.082.36-.136.09-.042.033-.13.04-.197.01-.086-.062-.062-.109-.066-.37-.038-.73.059-1.092.101-.33.04-.665.06-.995.118-.724.127-1.458.11-2.188.088-.748-.022-1.5-.044-2.242-.14a16.511 16.511 0 01-3.217-.723c-.71-.241-1.439-.436-2.147-.69-.99-.357-1.98-.71-2.933-1.162-.623-.295-1.248-.583-1.862-.897a23.135 23.135 0 01-3.267-2.045c-.427-.317-.844-.656-1.17-1.081.721.471 1.442.944 2.164 1.414.9.587 1.866 1.044 2.832 1.506.75.36 1.515.685 2.281 1.005 1.308.545 2.61 1.099 3.993 1.448.785.197 1.56.435 2.35.624.23.056.459.116.691.162.107.021.215-.021.254-.126.04-.106-.033-.178-.126-.228-.307-.164-.64-.244-.975-.33-1.061-.276-2.098-.634-3.135-.988a37.157 37.157 0 01-3.188-1.274 55.905 55.905 0 01-2.97-1.427 18.129 18.129 0 01-2.83-1.819c-.295-.232-.59-.463-.873-.712.28.095.511.277.76.424.6.354 1.197.711 1.805 1.05.622.347 1.233.716 1.883 1.005 1.138.504 2.237 1.095 3.422 1.503.761.263 1.485.64 2.255.887 1.446.465 2.894.92 4.35 1.35.793.233 1.606.397 2.419.551.158.03.32-.002.477-.045.086-.024.162-.086.162-.173 0-.07-.074-.107-.149-.139-.379-.162-.783-.228-1.179-.329-1-.256-1.975-.588-2.948-.932a24.622 24.622 0 01-2.339-.969 17.726 17.726 0 01-2.283-1.296c-.807-.541-1.63-1.061-2.431-1.61a42.985 42.985 0 01-2.113-1.511c-.736-.572-1.434-1.195-2.156-1.785-.708-.58-1.349-1.23-2.03-1.837-1.06-.943-1.812-2.111-2.581-3.274-.04-.06-.068-.126-.099-.19-.005-.011.004-.029.01-.064.278.317.517.648.775.962.255.31.51.617.766.924.41.49.868.935 1.33 1.373.6.571 1.225 1.114 1.86 1.649.823.693 1.673 1.352 2.518 2.018.688.54 1.376 1.078 2.118 1.547.632.4 1.225.861 1.873 1.239.533.31 1.074.608 1.607.919.28.163.563.313.886.377.05.01.098.02.15.023.06.004.123.007.157-.054.042-.076-.037-.1-.072-.141-.236-.275-.55-.457-.857-.626-.844-.463-1.584-1.077-2.386-1.6-.7-.456-1.395-.926-2.055-1.439-.596-.463-1.206-.91-1.787-1.394-.554-.463-1.105-.93-1.658-1.395-.249-.209-.47-.446-.722-.652-.63-.518-1.168-1.132-1.722-1.726-.609-.653-1.181-1.339-1.756-2.022a2.067 2.067 0 01-.371-.588c.062-.03.085 0 .112.025.284.27.57.538.853.808.648.617 1.29 1.24 1.944 1.851.326.305.627.632.96.93.712.637 1.415 1.282 2.138 1.905.505.436.986.9 1.506 1.317a43.34 43.34 0 001.973 1.495c.742.528 1.454 1.1 2.207 1.61.677.46 1.364.905 2.1 1.276.492.248.958.549 1.46.784.681.32 1.395.558 2.091.84.37.15.753.273 1.128.412.033.012.06.04.1.036.107-.012.253.056.287-.121.028-.151-.086-.214-.194-.261-.78-.339-1.563-.67-2.316-1.068a31.451 31.451 0 01-3.409-2.11 35.605 35.605 0 01-1.933-1.482c-.7-.567-1.35-1.184-1.988-1.816-.448-.442-.914-.867-1.355-1.316a42.492 42.492 0 01-1.568-1.66C7.369 33.37 6.339 32.169 5.51 30.81c-.423-.692-.874-1.367-1.246-2.091-.276-.536-.598-1.05-.86-1.592-.515-1.066-.877-2.19-1.221-3.321-.132-.432-.267-.862-.372-1.301-.035-.15-.096-.308-.055-.505.29.824.592 1.61.93 2.381.225.512.498 1.004.761 1.499.257.481.538.95.79 1.435.253.485.564.934.834 1.408.377.662.757 1.322 1.184 1.953.623.922 1.263 1.834 1.965 2.696.505.617 1.02 1.228 1.565 1.814.641.69 1.292 1.369 1.955 2.038.232.233.415.518.662.734.387.337.771.683 1.213.954.066.041.14.129.233.047.099-.086.025-.177-.012-.26a1.79 1.79 0 00-.398-.539c-.58-.573-1.174-1.133-1.75-1.711-.584-.587-1.105-1.227-1.622-1.874-.491-.613-1.001-1.21-1.472-1.84-.765-1.022-1.506-2.06-2.162-3.157-.674-1.128-1.284-2.292-1.927-3.438-.627-1.117-1.097-2.3-1.562-3.487-.14-.36-.305-.71-.421-1.08a.22.22 0 01-.008-.133c.27.288.405.648.551.995.27.644.622 1.246.943 1.864.366.707.781 1.389 1.198 2.07.403.66.78 1.338 1.183 2 .37.609.746 1.213 1.13 1.811.586.912 1.24 1.776 1.89 2.641.388.515.737 1.059 1.15 1.55.391.463.759.944 1.157 1.402 1.062 1.22 2.224 2.34 3.36 3.487.48.485 1.034.882 1.553 1.32.813.686 1.712 1.252 2.63 1.778.947.54 1.92 1.035 2.968 1.363.95.298 1.882.653 2.858.864.517.112 1.038.193 1.563.26.737.096 1.474.092 2.212.078a13.56 13.56 0 001.743-.166c.679-.1 1.348-.236 2.012-.408a20.469 20.469 0 002.645-.89 21.76 21.76 0 002.047-.952c1.206-.647 2.37-1.362 3.464-2.19.511-.389 1-.803 1.484-1.223.046-.04.102-.067.172-.112-.855 1.802-8.035 7.554-10.36 8.278zM48.91 29.296a4.999 4.999 0 00-2.28-2.54c-1.083-.596-2.274-.822-3.492-.889a12.432 12.432 0 00-1.62.025c-.785.06-1.559.166-2.33.319a19.459 19.459 0 00-3.412 1.033c-.894.356-1.763.764-2.606 1.23-.502.28-1.003.563-1.484.874a32.68 32.68 0 00-4.855 3.788 29.064 29.064 0 00-1.546 1.568 46.371 46.371 0 00-1.527 1.758 34.184 34.184 0 00-1.701 2.278 31.485 31.485 0 00-1.798 2.967c-.045.082-.072.122-.178.06a26.35 26.35 0 01-2.886-1.941c-.81-.628-1.58-1.3-2.331-1.993a23.491 23.491 0 01-1.63-1.673c-.126-.143-.26-.28-.384-.424-.557-.657-1.106-1.32-1.666-1.974-.467-.547-.881-1.133-1.317-1.704-.412-.54-.75-1.131-1.163-1.668-.59-.767-1.073-1.603-1.602-2.409-.323-.492-.61-1.009-.926-1.505a45.962 45.962 0 01-1.76-3.038c-.582-1.09-1.015-2.259-1.741-3.27-.271-.379-.541-.758-.949-1.012-.384-.24-.596-.163-.747.269-.124.355-.15.724-.17 1.09-.027.528.023 1.051.12 1.575.117.623.221 1.247.41 1.854.24.773.534 1.526.828 2.279.199.506.399 1.013.66 1.489.277.502.552 1.007.852 1.498.404.662.788 1.336 1.197 1.995.432.696.948 1.33 1.448 1.976.41.53.85 1.037 1.279 1.552.348.417.7.83 1.054 1.25-.025.005-.045.015-.052.01-.392-.328-.802-.637-1.17-.989-.745-.71-1.468-1.442-2.224-2.141-.867-.8-1.676-1.662-2.531-2.477-.527-.502-1.017-1.043-1.631-1.445-.37-.242-.706-.427-1.049-.09v.625c.014.013.04.025.04.04.031.392.184.754.302 1.122.216.67.565 1.285.917 1.891a17.597 17.597 0 002.387 3.201c.47.5.935 1.004 1.448 1.464.67.6 1.364 1.17 2.058 1.74.856.705 1.771 1.325 2.68 1.956.288.2.592.378.888.567-.325-.054-.606-.208-.89-.35-.835-.416-1.66-.852-2.49-1.28-.544-.28-1.1-.537-1.628-.844-1.142-.665-2.264-1.363-3.405-2.03-.214-.125-.41-.29-.657-.36-.246-.07-.492.031-.525.245-.022.149-.036.308.019.46.275.768.66 1.476 1.227 2.064.481.5.971.99 1.504 1.442.472.4.95.79 1.462 1.134a40.319 40.319 0 002.401 1.485c.749.43 1.491.871 2.296 1.18 1.046.4 2.049.91 3.123 1.246-.25.036-.51.011-.739-.042-.781-.186-1.574-.294-2.362-.436-.878-.158-1.739-.391-2.605-.6a7.675 7.675 0 00-1.735-.199c-.241-.002-.39.169-.404.4-.023.385.237.608.487.811.734.594 1.548 1.07 2.38 1.512.582.31 1.182.578 1.804.797.25.087.5.177.76.23.55.115 1.098.233 1.648.348.514.108 1.026.236 1.545.316.494.076.997.1 1.54.153a3.17 3.17 0 00-.581.203.561.561 0 00-.317.461c-.015.173.116.333.323.41.752.282 1.503.563 2.298.698.113.02.194.053.175.192-.02.145-.044.29-.044.435.003.827-.015 1.654.08 2.48.076.663.18 1.322.338 1.967.263 1.074.643 2.109 1.19 3.077.56.987 1.236 1.875 2.088 2.636.807.72 1.709 1.273 2.695 1.705 1.391.609 2.859.868 4.358.943 1.014.051 2.028.001 3.038-.162.799-.129 1.581-.31 2.354-.539a21.236 21.236 0 003.997-1.675 27.351 27.351 0 001.948-1.15 33.205 33.205 0 003.092-2.276 45.441 45.441 0 001.968-1.76c.351-.328.675-.686.999-1.042.2-.22.372-.465.566-.692.072-.084.06-.147-.016-.205-.328-.246-.59-.559-.884-.84-.062-.06-.112-.08-.189-.014-.546.46-1.093.92-1.644 1.376-.488.404-.968.82-1.474 1.198-.734.548-1.469 1.095-2.243 1.587a17.446 17.446 0 01-2.976 1.541c-1.238.488-2.527.722-3.85.769-.393.014-.79-.038-1.184-.076a9.009 9.009 0 01-1.778-.364 7.33 7.33 0 01-2.773-1.536 6.45 6.45 0 01-1.579-2.168c-.462-1.01-.652-2.076-.707-3.172-.033-.657.015-1.313.09-1.965.03-.266.09-.527.128-.792.01-.072.024-.091.1-.106.509-.098 1.02-.189 1.522-.315 1.23-.311 2.459-.633 3.667-1.023a59.633 59.633 0 002.655-.928c1.12-.42 2.22-.886 3.302-1.394.8-.376 1.586-.78 2.36-1.208.729-.405 1.443-.835 2.138-1.295.967-.64 1.9-1.328 2.774-2.093a23.842 23.842 0 001.947-1.902 15.255 15.255 0 001.736-2.283c.476-.777.95-1.555 1.325-2.39.434-.968.737-1.976.804-3.03.068-1.056.036-2.113-.382-3.126zM32.066 0c0 .409.005.819-.003 1.227-.003.125.03.167.159.16.2-.01.401.003.602-.005.106-.004.143.027.137.136-.01.2.064.452-.032.584-.091.126-.36.036-.55.04-.313.006-.311.002-.314.314-.003.352-.093.753.454.789.97.525 1.094 1.875.45 2.581-.516.565-1.137.745-1.835.504-.598-.208-1.025-.653-1.114-1.303-.123-.89.264-1.547 1.111-1.893.11-.045.133-.09.131-.186-.004-.26.09-.591-.037-.757-.12-.158-.472-.043-.721-.043-.144 0-.196-.034-.183-.183.013-.154.006-.312.002-.468-.004-.114.043-.16.158-.158.216.004.432-.005.647.003.109.005.138-.03.136-.137-.006-.402-.002-.803-.002-1.205h.804zM30.95 14.162c0-.337-.076-.64-.115-.946-.032-.25-.072-.5-.11-.751-.008-.06.02-.1.063-.133.395-.304.752-.652 1.13-.984.313.34.672.64.963 1.007.056.07.086.132.078.216-.045.463-.088.926-.171 1.384-.013.072-.002.148-.002.257.2-.182.36-.382.59-.495.34-.167.683-.213 1.043-.055.302.133.4.403.456.686.108.542-.01 1.065-.175 1.579-.103.321-.231.632-.39.93-.075.142-.154.22-.328.207-.244-.017-.49-.004-.74-.004.126-.352.265-.694.294-1.062.016-.191.032-.402-.218-.477-.243-.072-.406.088-.511.25-.357.549-.306 1.417.37 1.787.498.273 1.203.224 1.693-.153.465-.359.663-.875.809-1.412.096-.354.153-.718.225-1.078.017-.083.004-.147-.109-.134-.073.008-.148.002-.223.002-.297 0-.306-.001-.288-.29.014-.217.054-.432.09-.646.016-.098.1-.09.175-.092.51-.02.49-.023.541-.532.05-.489.148-.974.214-1.462.012-.09.04-.107.12-.106.275.003.551.011.826-.003.146-.007.143.072.129.163-.05.307-.106.613-.159.919-.051.3-.103.599-.152.899-.017.108-.002.194.144.168.036-.007.074-.001.111-.001.453 0 .453 0 .368.443-.006.028-.034.051-.037.08-.02.154.051.367-.096.443-.13.067-.321.028-.484.013-.174-.016-.213.032-.245.217a4.49 4.49 0 00-.057.673c-.01.6.036 1.22.488 1.683.282.289.671.407 1.073.37.349-.03.693-.115.978-.35.392-.32.703-1.102.404-1.623-.074-.128-.165-.222-.303-.2-.14.02-.277.087-.328.244-.081.25-.058.507-.036.762.001.014.017.026.02.04.1.414.025.51-.395.51-.37 0-.367-.002-.493-.376a4.306 4.306 0 01-.212-1.704c.03-.41.14-.814.448-1.12.475-.47 1.255-.489 1.717.128.154.207.291.426.447.655.086-.258.08-.519.098-.77.017-.25.046-.454.306-.58.626-.3 1.242-.62 1.915-.96-.207.6-.396 1.144-.583 1.689-.47 1.367-.936 2.735-1.41 4.101-.255.737-.53 1.467-.78 2.206-.063.182-.153.36-.185.548-.036.205-.126.252-.33.252-5.053-.007-10.107-.006-15.16-.001-.2 0-.282-.055-.353-.253-.479-1.332-.978-2.658-1.472-3.985-.538-1.448-1.076-2.896-1.619-4.343-.02-.053.012-.12-.051-.168.28.062.514.213.76.337.475.239.945.489 1.422.723.128.063.171.134.181.28.022.336.08.669.128 1.04.17-.272.248-.542.408-.775.258-.377.517-.431.991-.322.66.151.94.65 1.053 1.26a3.348 3.348 0 01-.262 2.084c-.04.087-.092.1-.17.099-.193-.002-.388-.013-.58.003-.174.015-.16-.091-.142-.191.067-.386.07-.765-.04-1.147-.055-.185-.188-.242-.332-.266-.139-.022-.209.099-.258.22-.334.81.224 1.882 1.176 1.97.444.04.822-.033 1.17-.312.29-.234.424-.555.508-.896.137-.553.105-1.113.008-1.672-.016-.096-.071-.075-.125-.076a24.416 24.416 0 00-.514 0c-.07 0-.12.002-.127-.1a5.417 5.417 0 00-.092-.735c-.028-.132.01-.15.118-.148h.535c-.067-.519-.132-1.027-.2-1.535a4.587 4.587 0 00-.079-.404c-.023-.102-.024-.167.116-.163.26.01.52.007.78.001.129-.002.152.056.17.173.095.607.21 1.21.303 1.818.017.11.058.114.138.11.075-.002.15 0 .224 0 .345 0 .35 0 .4.322.017.114.024.23.042.346.05.313.04.315-.282.315h-.382c.062.39.112.762.18 1.132.102.55.24 1.084.673 1.488.422.393 1.185.465 1.69.177.542-.309.747-.782.716-1.382a.64.64 0 00-.683-.612c-.203.011-.33.143-.344.347-.028.386.104.74.232 1.127-.315 0-.615-.002-.915 0-.1.002-.121-.077-.144-.14-.206-.567-.401-1.135-.474-1.742-.043-.353-.064-.694.044-1.036.214-.683.973-.693 1.442-.397.182.114.34.265.53.417z" fill="#616161"/><path d="M40.695 12.689c-.004-.04-.014-.068-.009-.093.12-.581-.219-.907-.626-1.244a11.98 11.98 0 00-2.6-1.615c-.95-.442-1.93-.801-2.968-.99-.323-.06-.649-.078-.972-.126-.089-.013-.154-.015-.166.127-.043.508-.112 1.013-.172 1.519-.044.375-.091.75-.132 1.126-.005.05-.014.097-.055.11-.047.014-.073-.041-.103-.07-.274-.274-.556-.54-.817-.825-.121-.132-.18-.104-.292.007-.35.35-.712.687-1.098 1.056-.093-.631-.177-1.235-.274-1.837-.062-.393-.142-.784-.176-1.182-.011-.133-.113-.08-.168-.074-.59.059-1.17.174-1.73.364-1.231.416-2.37 1.021-3.443 1.747-.53.358-1.02.776-1.494 1.208a.49.49 0 00-.18.444c.013.139.003.28.003.44-.364-.16-.71-.31-1.054-.466-.255-.114-.505-.24-.76-.354-.113-.05-.123-.08-.036-.18a13.975 13.975 0 013.24-2.716 13.82 13.82 0 013.973-1.652 13.16 13.16 0 011.926-.317c.566-.049 1.132-.114 1.697-.079.971.062 1.937.151 2.89.386.95.235 1.867.544 2.76.942.98.435 1.882.996 2.728 1.64.666.508 1.29 1.072 1.827 1.722.078.093.06.126-.038.175-.55.276-1.097.56-1.68.807zM37.425 6.54a.78.78 0 01-.785.786c-.4.005-.746-.316-.775-.776-.025-.41.373-.8.787-.787.366.013.796.313.773.777zM38.598 6.61c.436-.009.785.37.79.783.006.395-.383.792-.795.773-.38-.018-.764-.288-.771-.778-.006-.41.387-.828.776-.779zM21.624 8.798c.441.003.803.352.794.775-.009.435-.384.802-.79.782-.452-.02-.746-.316-.768-.778-.022-.448.4-.804.764-.779zM42.873 9.652c.046.409-.381.805-.727.799-.502-.008-.803-.386-.826-.81-.023-.42.37-.745.816-.757.356-.009.79.347.737.768zM27.555 6.607c0 .45-.302.77-.737.76-.526-.011-.77-.328-.818-.751-.042-.386.397-.811.81-.807.374.003.815.387.745.798zM39.747 8.358c-.08-.38.346-.78.73-.773.373.006.802.318.799.764a.844.844 0 01-.797.807c-.355.008-.804-.405-.732-.798zM24.982 6.654c.496-.023.772.356.784.763.01.386-.383.813-.753.792-.43-.023-.825-.378-.81-.826a.766.766 0 01.779-.729zM34.632 5.27c.422-.033.766.324.782.749.014.386-.414.836-.787.799-.44-.045-.77-.333-.778-.82-.005-.362.351-.768.783-.728zM24.027 8.49a.781.781 0 01-.754.793c-.395.007-.77-.37-.774-.8-.005-.387.38-.768.77-.768.401 0 .796.389.758.775zM29.52 5.998a.758.758 0 01-.758.785A.762.762 0 0128 6.02c.004-.432.297-.75.704-.751.509-.001.815.272.816.728zM24.958 69.663c0 .219-.068.42-.196.606-.132.182-.373.383-.72.601-.455.287-.587.428-.642.602h1.554v.464h-2.178c0-.492.233-.893.73-1.225.163-.11.327-.223.482-.337.31-.228.451-.456.451-.697 0-.356-.2-.56-.538-.56-.35 0-.528.24-.546.796h-.52c.014-.774.438-1.23 1.098-1.23.634 0 1.025.41 1.025.98zM26.398 71.567c.387 0 .583-.387.583-1.225 0-.834-.205-1.226-.588-1.226s-.578.415-.578 1.226c0 .834.2 1.225.583 1.225zm1.102-1.225c0 1.047-.378 1.658-1.102 1.658-.725 0-1.103-.606-1.103-1.658 0-1.048.374-1.658 1.103-1.658.733 0 1.102.606 1.102 1.658zM29.259 68.747v3.19h-.57v-2.251h-.784v-.41c.538 0 .87-.2.93-.529h.424zM31.427 70.437c.382 0 .578-.319.578-.67 0-.35-.21-.65-.583-.65-.369 0-.551.314-.551.65 0 .338.182.67.556.67zm1.148-.09c0 .756-.3 1.653-1.203 1.653-.506 0-.934-.35-.961-.87h.52c.022.26.2.437.464.437.56 0 .628-.674.66-1.093l-.009-.009a.782.782 0 01-.688.382c-.633 0-1.006-.464-1.006-1.075 0-.656.446-1.088 1.098-1.088.97 0 1.125.87 1.125 1.662z" fill="#616161"/></svg>