<svg width="24" height="24" viewBox="0 0 24 24" fill="none" xmlns="http://www.w3.org/2000/svg">
<path fill-rule="evenodd" clip-rule="evenodd" d="M24 12C24 18.6274 18.6274 24 12 24C5.37258 24 0 18.6274 0 12C0 5.37258 5.37258 0 12 0C18.6274 0 24 5.37258 24 12ZM18.036 10.098C18.036 13.92 15.126 18.33 9.804 18.33C8.172 18.33 6.648 17.85 5.382 17.022C5.61 17.052 5.838 17.064 6.072 17.064C7.428 17.064 8.676 16.602 9.666 15.828C8.4 15.804 7.332 14.97 6.966 13.818C7.146 13.854 7.326 13.872 7.512 13.872C7.776 13.872 8.034 13.836 8.274 13.77C6.948 13.5 5.952 12.336 5.952 10.932V10.896C6.342 11.112 6.786 11.244 7.26 11.256C6.48 10.74 5.97 9.852 5.97 8.85C5.97 8.322 6.114 7.824 6.36 7.398C7.788 9.15 9.918 10.302 12.324 10.422C12.27 10.212 12.246 9.99 12.246 9.762C12.246 8.166 13.542 6.87 15.138 6.87C15.972 6.87 16.722 7.218 17.25 7.782C17.91 7.65 18.528 7.41 19.086 7.08C18.87 7.758 18.414 8.322 17.814 8.682C18.402 8.61 18.96 8.454 19.476 8.226C19.086 8.808 18.594 9.318 18.03 9.726C18.036 9.846 18.036 9.972 18.036 10.098Z" fill="#616161"/>
</svg>