<svg width="24" height="24" viewBox="0 0 24 24" fill="none" xmlns="http://www.w3.org/2000/svg">
<path d="M10.406 9.60534V14.4007L14.582 12.0067L10.406 9.60534Z" fill="#616161"/>
<path fill-rule="evenodd" clip-rule="evenodd" d="M12 24C18.6274 24 24 18.6274 24 12C24 5.37258 18.6274 0 12 0C5.37259 0 0 5.37258 0 12C0 18.6274 5.37259 24 12 24ZM19.15 7.25803C19.3938 7.50188 19.5706 7.80451 19.6633 8.13667C19.8947 9.41347 20.0063 10.7091 19.9967 12.0067C20.0054 13.2993 19.8938 14.59 19.6633 15.862C19.5706 16.1942 19.3938 16.4968 19.15 16.7406C18.9061 16.9845 18.6035 17.1613 18.2713 17.254C17.0113 17.5887 12.0073 17.5887 12.0073 17.5887C12.0073 17.5887 6.98866 17.5887 5.74333 17.254C5.41118 17.1613 5.10855 16.9845 4.8647 16.7406C4.62085 16.4968 4.44403 16.1942 4.35133 15.862C4.11592 14.5905 3.99942 13.2998 4.00333 12.0067C3.9985 10.7086 4.11502 9.41301 4.35133 8.13667C4.44403 7.80451 4.62085 7.50188 4.8647 7.25803C5.10855 7.01419 5.41118 6.83737 5.74333 6.74467C7.00267 6.404 12.0073 6.41067 12.0073 6.41067C12.0073 6.41067 17.0247 6.41067 18.2713 6.74467C18.6035 6.83737 18.9061 7.01419 19.15 7.25803Z" fill="#616161"/>
</svg>