<svg fill="none" height="36" viewBox="0 0 192 36" width="192" xmlns="http://www.w3.org/2000/svg"><path d="m17.9626 9c3.8919 0 6.4366 1.875 8.3825 4.05.1497.15.2245.3.3742.45s.2246.3.3743.45c.6736.825 1.1975 1.725 1.7214 2.475.3742.525.6736 1.05 1.0478 1.5.1497.15.2245.3.3742.45s.2245.3.3742.45c1.4221 1.725 2.8441 2.85 4.9397 3 .2994-1.275.4491-2.55.4491-3.9s-.1497-2.7-.4491-3.9c-2.0956.15-3.5176 1.2-4.9397 3-.2245-.375-.5239-.75-.8233-1.2-.5987-.825-1.1975-1.8-1.9459-2.775 1.4969-1.725 3.368-3.225 5.9127-3.825-3.1435-5.475-9.0562-9.225-15.7921-9.225-6.736 0-12.64867 3.75-15.71728 9.225 2.5447.6 4.34096 2.1 5.91268 3.825.14969.15.22454.3.37422.45.14969.15.22454.3.37423.45.74844.9 1.34715 1.875 1.94595 2.775.2994.45.5239.825.8233 1.2.1497.15.2245.3.3742.525.1497.15.2245.3.3742.525 1.5717 2.175 3.1435 3.675 5.6133 3.675 2.4699 0 4.0416-1.5 5.6133-3.675.1497.3.3742.525.5239.825.6736.975 1.3472 2.1 2.1705 3.075-1.8711 2.175-4.4906 4.05-8.3825 4.05s-6.4366-1.875-8.38256-4.05c-.14969-.15-.22453-.3-.37422-.45s-.22453-.3-.37422-.45c-.6736-.825-1.1975-1.725-1.72141-2.475-.37422-.525-.6736-1.05-1.04782-1.5-.14969-.15-.22453-.3-.37422-.45s-.22453-.3-.37422-.45c-1.42204-1.725-2.84408-2.85-4.93971-3-.224532 1.2-.37422 2.55-.37422 3.9s.149688 2.7.449064 3.9c2.095636-.15 3.517676-1.2 4.939706-3 .22454.375.52391.75.82329 1.2.59875.825 1.1975 1.8 1.94594 2.775-1.49688 1.725-3.36798 3.225-5.91268 3.825 3.06861 5.55 8.98128 9.3 15.71728 9.3 6.7359 0 12.6486-3.75 15.7172-9.225-2.5447-.6-4.3409-2.1-5.9126-3.825-.1497-.15-.2246-.3-.3743-.45s-.2245-.3-.3742-.45c-.7484-.9-1.3472-1.875-1.9459-2.775-.2994-.45-.5239-.825-.8233-1.2-.1497-.15-.2246-.3-.3742-.525-.1497-.15-.2246-.3-.3743-.525-1.5717-2.175-3.1434-3.675-5.6133-3.675-2.4698 0-4.0415 1.5-5.6133 3.675-.1497-.3-.3742-.525-.5239-.825-.6736-.975-1.3472-2.1-2.17046-3.075 1.94596-2.25 4.49066-4.125 8.38256-4.125z" fill="#ff1744"/><g fill="#212121"><path d="m40.9654 9.49091v15.70909h3.2216v-10.2631h.1304l4.0653 10.1864h2.1938l4.0653-10.148h.1304v10.2247h3.2216v-15.70909h-4.096l-4.3262 10.55459h-.184l-4.3262-10.55459z"/><path d="m60.8587 25.2h3.2676v-11.7818h-3.2676zm1.6415-13.3006c.9741 0 1.7719-.744 1.7719-1.6568 0-.9051-.7978-1.64913-1.7719-1.64913-.9665 0-1.7642.74403-1.7642 1.64913 0 .9128.7977 1.6568 1.7642 1.6568z"/><path d="m72.0672 25.4301c3.1372 0 5.1085-1.8409 5.2619-4.5486h-3.0835c-.1918 1.258-1.0202 1.9637-2.1401 1.9637-1.5264 0-2.5159-1.281-2.5159-3.5361 0-2.2244.9972-3.4977 2.5159-3.4977 1.1966 0 1.9637.79 2.1401 1.9636h3.0835c-.1381-2.723-2.2014-4.5102-5.2773-4.5102-3.5744 0-5.7835 2.4775-5.7835 6.0903 0 3.5821 2.1707 6.075 5.7989 6.075z"/><path d="m79.4212 25.2h3.2676v-6.6656c.0077-1.4421 1.0509-2.4316 2.3702-2.4316.4449 0 .8054.1228 1.1122.2762l.9818-2.7c-.4295-.2608-.9818-.4296-1.6108-.4296-1.3269 0-2.4008.7671-2.8303 2.2245h-.1228v-2.0557h-3.1679z"/><path d="m93.4562 25.4301c3.5745 0 5.7989-2.4469 5.7989-6.075 0-3.6511-2.2244-6.0903-5.7989-6.0903-3.5744 0-5.7988 2.4392-5.7988 6.0903 0 3.6281 2.2244 6.075 5.7988 6.075zm.0154-2.5312c-1.6492 0-2.4929-1.5111-2.4929-3.5668s.8437-3.5744 2.4929-3.5744c1.6184 0 2.4622 1.5187 2.4622 3.5744s-.8438 3.5668-2.4622 3.5668z"/><path d="m106.688 29.7869c3.367 0 5.76-1.5341 5.76-4.4718v-11.8969h-3.244v1.979h-.123c-.437-.9588-1.396-2.1324-3.367-2.1324-2.585 0-4.771 2.0096-4.771 6.0213 0 3.9196 2.124 5.7452 4.778 5.7452 1.88 0 2.93-.9435 3.36-1.9177h.138v2.1554c0 1.5418-1.035 2.1708-2.455 2.1708-1.442 0-2.17-.629-2.439-1.2656l-3.022.4065c.391 1.7795 2.209 3.2062 5.385 3.2062zm.069-7.2102c-1.603 0-2.478-1.2733-2.478-3.306 0-2.0019.859-3.4056 2.478-3.4056 1.588 0 2.477 1.3423 2.477 3.4056 0 2.0787-.905 3.306-2.477 3.306z"/><path d="m120.418 25.4301c2.915 0 4.878-1.419 5.339-3.6051l-3.023-.1994c-.329.8974-1.173 1.3653-2.262 1.3653-1.634 0-2.67-1.0815-2.67-2.8381v-.0076h8.024v-.8975c0-4.0039-2.424-5.9829-5.539-5.9829-3.467 0-5.714 2.4622-5.714 6.098 0 3.7355 2.217 6.0673 5.845 6.0673zm-2.616-7.3099c.069-1.3424 1.089-2.4162 2.539-2.4162 1.419 0 2.401 1.0125 2.409 2.4162z"/><path d="m131.226 18.3886c.007-1.5187.912-2.4085 2.232-2.4085 1.311 0 2.101.8591 2.094 2.3012v6.9187h3.267v-7.5017c0-2.746-1.61-4.4335-4.065-4.4335-1.749 0-3.015.8591-3.544 2.2321h-.138v-2.0787h-3.114v11.7818h3.268z"/><path d="m146.764 25.4301c2.915 0 4.878-1.419 5.339-3.6051l-3.023-.1994c-.329.8974-1.173 1.3653-2.262 1.3653-1.634 0-2.67-1.0815-2.67-2.8381v-.0076h8.024v-.8975c0-4.0039-2.424-5.9829-5.538-5.9829-3.467 0-5.715 2.4622-5.715 6.098 0 3.7355 2.217 6.0673 5.845 6.0673zm-2.616-7.3099c.069-1.3424 1.09-2.4162 2.539-2.4162 1.419 0 2.401 1.0125 2.409 2.4162z"/><path d="m160.571 13.4182h-2.217v-2.8227h-3.268v2.8227h-1.61v2.4545h1.61v6.1364c-.015 2.3088 1.558 3.4517 3.928 3.352.843-.0307 1.442-.1994 1.772-.3068l-.514-2.4316c-.161.0307-.507.1074-.813.1074-.652 0-1.105-.2454-1.105-1.1506v-5.7068h2.217z"/><path d="m162.699 25.2h3.268v-11.7818h-3.268zm1.642-13.3006c.974 0 1.772-.744 1.772-1.6568 0-.9051-.798-1.64913-1.772-1.64913-.967 0-1.764.74403-1.764 1.64913 0 .9128.797 1.6568 1.764 1.6568z"/><path d="m173.908 25.4301c3.137 0 5.108-1.8409 5.262-4.5486h-3.084c-.192 1.258-1.02 1.9637-2.14 1.9637-1.526 0-2.516-1.281-2.516-3.5361 0-2.2244.997-3.4977 2.516-3.4977 1.197 0 1.964.79 2.14 1.9636h3.084c-.138-2.723-2.202-4.5102-5.278-4.5102-3.574 0-5.783 2.4775-5.783 6.0903 0 3.5821 2.171 6.075 5.799 6.075z"/><path d="m191.065 16.7778c-.292-2.1707-2.041-3.513-5.017-3.513-3.014 0-5.001 1.396-4.993 3.6665-.008 1.7642 1.104 2.9071 3.405 3.3673l2.041.4065c1.028.2071 1.496.583 1.511 1.1736-.015.698-.775 1.1966-1.918 1.1966-1.166 0-1.94-.4986-2.14-1.4574l-3.214.1688c.307 2.2551 2.225 3.6434 5.347 3.6434 3.052 0 5.239-1.5571 5.246-3.8812-.007-1.7029-1.12-2.723-3.406-3.1909l-2.132-.4296c-1.097-.2378-1.503-.6136-1.496-1.1812-.007-.7057.79-1.1659 1.803-1.1659 1.135 0 1.81.6213 1.971 1.3806z"/></g></svg>