<svg fill="none" height="36" viewBox="0 0 174 36" width="174" xmlns="http://www.w3.org/2000/svg"><path clip-rule="evenodd" d="m155.242 21.4839c-.875-1.5124-1.38-3.2677-1.38-5.1401 0-5.6807 4.611-10.28848 10.292-10.28848.966 0 1.743.78335 1.743 1.7497 0 .96636-.783 1.75016-1.749 1.75016-3.749 0-6.789 3.03932-6.789 6.78842 0 1.2365.334 2.394.912 3.3924.148.2568.231.5549.231.873 0 .9663-.784 1.7497-1.75 1.7497-.647 0-1.208-.3531-1.51-.8748zm5.17-9.1749c-1.084 1.0041-1.763 2.4403-1.763 4.0346 0 1.001.27 1.937.739 2.7468.261.4538.403.9748.403 1.5186 0 1.2147-.712 2.2625-1.741 2.7495 1.412.4364 2.994.3061 4.375-.4909.867-.5006 1.543-1.2027 2.01-2.0134.262-.4531.642-.8368 1.113-1.1084 1.052-.6076 2.316-.5147 3.252.1339-.328-1.4412-1.232-2.7471-2.613-3.5442-.867-.5006-1.813-.7347-2.748-.7341-.524 0-1.046-.1377-1.517-.4094-1.052-.6071-1.603-1.7481-1.51-2.883zm8.168 10.9393c-.872 1.5134-2.14 2.8285-3.761 3.7648-4.92 2.84-11.216 1.1509-14.056-3.7686-.483-.8367-.193-1.9013.644-2.384.837-.4834 1.907-.1975 2.39.6393 1.874 3.2467 6.026 4.3592 9.273 2.4846 1.071-.618 1.906-1.4862 2.482-2.4855.149-.2568.366-.4771.641-.6364.837-.4827 1.907-.1961 2.39.6409.323.5601.298 1.2219-.003 1.7449zm-5.141-12.4341c1.747-.0009 3.52.4396 5.141 1.3758 4.92 2.8403 6.605 9.1374 3.765 14.0569-.484.8368-1.55 1.1175-2.387.6345-.837-.4834-1.124-1.5529-.641-2.3898 1.874-3.2468.762-7.3983-2.485-9.2734-1.071-.6182-2.24-.9075-3.394-.9066-.296 0-.596-.0778-.871-.2366-.837-.4834-1.124-1.5534-.64-2.3901.323-.5601.909-.8695 1.512-.8707z" fill="#97999b" fill-rule="evenodd"/><g fill="#00a3e0"><path d="m31.6738 27.9733h3.5254v-12.2997c0-4.6768-3.7837-8.48161-8.4347-8.48161-1.776 0-3.492.55398-4.9094 1.57304v-8.76503h-3.572v27.9609h3.572v-12.2873c0-2.707 2.2024-4.9096 4.9094-4.9096 2.7072 0 4.9093 2.2026 4.9093 4.9096z"/><path clip-rule="evenodd" d="m3.58853 36h-3.58853v-20.3545c0-4.7123 3.83374-8.54626 8.54629-8.54626h.43545c4.71256 0 8.54626 3.83416 8.54626 8.54626v3.8378c0 4.7126-3.8337 8.5466-8.54626 8.5466h-.43545c-1.79449 0-3.52768-.561-4.95776-1.593zm4.95775-25.3122c-2.73369 0-4.95775 2.224-4.95775 4.9577v3.8379c0 2.7337 2.22406 4.9577 4.95775 4.9577h.43545c2.73367 0 4.95797-2.224 4.95797-4.9577v-3.8379c0-2.7337-2.2243-4.9577-4.95797-4.9577z" fill-rule="evenodd"/><path d="m53.2498 27.9593h-3.3997v-12.3262c0-2.788-2.2681-5.0564-5.0561-5.0564h-.4366c-2.788 0-5.0564 2.2684-5.0564 5.0564v3.8401c0 2.788 2.2684 5.0561 5.0564 5.0561h.4366c1.3484 0 2.6333-.5205 3.6177-1.4658l.9863-.9804v.8786c0 .5058-.0039 1.3708-.0073 2.1207l-.0014.3272c-.002.4322-.0036.7943-.0036.9757v.2043l-.1739.107c-1.3102.8062-2.838 1.2326-4.4178 1.2326h-.4366c-4.6625 0-8.4558-3.7935-8.4558-8.456v-3.8401c0-4.6626 3.7933-8.45581 8.4558-8.45581h.4366c4.6625 0 8.4558 3.79321 8.4558 8.45581z"/><path clip-rule="evenodd" d="m138.871 27.9278h-.437c-4.646 0-8.439-3.7808-8.456-8.4277v-3.8681c0-4.6626 3.794-8.45561 8.456-8.45561h.437c4.662 0 8.456 3.79301 8.456 8.45561v3.8403c-.014 4.6628-3.807 8.4555-8.456 8.4555zm-.437-17.3522c-2.788 0-5.056 2.2684-5.056 5.0564v3.8403c0 2.7877 2.268 5.0559 5.056 5.0559h.437c2.788 0 5.056-2.2682 5.056-5.0559v-3.8403c0-2.788-2.268-5.0564-5.056-5.0564z" fill-rule="evenodd"/><path d="m53.9969 27.9278h3.3995v-12.2958c0-2.788 2.2679-5.0562 5.0543-5.0562.6859.0025 1.3505.14 1.975.4088l.5099.2192v-3.65259l-.2685-.07397c-.6626-.18232-1.3484-.28275-2.0422-.29881l-.1731-.00204c-1.8311.00113-3.5987.59515-5.0554 1.68637v-1.69338h-3.3995z"/><path d="m96.0353 27.9278h-3.3996v-12.2958c0-2.7783-2.2587-5.0465-5.0354-5.0562-2.7864 0-5.0541 2.2682-5.0541 5.0562v12.2958h-3.3994v-12.2958c0-2.7783-2.2587-5.0465-5.0349-5.0562-2.7864 0-5.0543 2.2682-5.0543 5.0562v12.2958h-3.3995v-20.75842h3.3995v1.69338c1.4567-1.09122 3.2243-1.68524 5.0554-1.68637l.1728.00204c2.5926.06039 5.0069 1.31267 6.5616 3.37707 1.5988-2.12367 4.0862-3.37753 6.7541-3.37911l.173.00204c4.5565.10586 8.2608 3.89797 8.2608 8.45357z"/><path d="m110.802 27.9593h3.399v-12.3262c0-4.6626-3.793-8.45581-8.455-8.45581h-.437c-4.662 0-8.4557 3.79321-8.4557 8.45581v3.8401c0 4.6625 3.7937 8.456 8.4557 8.456h.437c1.579 0 3.107-.4264 4.417-1.2326l.175-.107v-.2043c0-.2126.002-.6731.004-1.2042l.001-.2332c.003-.7166.007-1.5103.007-1.9862v-.8786l-.987.9804c-.984.9453-2.269 1.4658-3.617 1.4658h-.437c-2.788 0-5.056-2.2681-5.056-5.0561v-3.8401c0-2.788 2.268-5.0564 5.056-5.0564h.437c2.788 0 5.056 2.2684 5.056 5.0564z"/><path d="m115.694 27.9297h-.741v-3.4029h.74c2.78-.0072 5.042-2.2745 5.042-5.0536v-3.8401c0-2.7796-2.262-5.0471-5.043-5.0543h-.739v-3.40241h.74c2.758.00429 5.211 1.33767 6.752 3.39201 1.541-2.05234 3.991-3.38545 6.746-3.39201h.741v3.40241h-.74c-2.777.009-5.038 2.2765-5.038 5.0543v3.8401c0 2.773 2.257 5.0401 5.032 5.0536h.737v3.4029h-.739c-2.752-.0089-5.2-1.342-6.739-3.3928-1.541 2.0539-3.994 3.3875-6.751 3.3928z"/></g></svg>